<svg width="378" height="378" xmlns="http://www.w3.org/2000/svg" xmlns:xlink="http://www.w3.org/1999/xlink" overflow="hidden"><g><rect x="0" y="0" width="378" height="378" fill="#FFFFFF"/><path d="M338.625 283.5C338.625 288.619 332.719 293.344 322.875 296.888L322.875 282.713C328.388 281.138 333.9 278.775 338.625 276.412L338.625 283.5ZM307.125 257.513 307.125 243.337C312.638 241.763 318.15 239.4 322.875 237.038L322.875 244.125C322.875 249.244 316.969 253.969 307.125 257.513ZM307.125 301.612C302.4 302.794 296.888 303.581 291.375 304.369L291.375 289.013C296.494 288.225 302.006 287.438 307.125 286.65L307.125 301.612ZM275.625 249.638C280.744 248.85 286.256 248.062 291.375 247.275L291.375 262.237C286.65 263.419 281.138 264.206 275.625 264.994L275.625 249.638ZM275.625 306.338C270.506 306.731 265.388 307.125 259.875 307.125L259.875 291.375C264.6 291.375 270.112 290.981 275.625 290.588L275.625 306.338ZM244.125 267.75 244.125 252C248.85 252 254.362 251.606 259.875 251.212L259.875 266.963C254.756 267.356 249.638 267.356 244.125 267.75ZM244.125 307.125C238.612 307.125 233.494 306.731 228.375 306.338L228.375 291.375C231.131 291.375 233.494 291.375 236.25 291.375 238.612 291.375 241.369 291.375 244.125 291.375L244.125 307.125ZM212.625 251.212C217.744 251.606 222.862 252 228.375 252L228.375 267.75C222.862 267.75 217.744 267.356 212.625 266.963L212.625 251.212ZM212.625 304.369C207.112 303.581 201.6 302.794 196.875 301.612L196.875 289.013C201.994 289.8 207.112 290.194 212.625 290.588L212.625 304.369ZM181.125 262.237 181.125 246.881C186.244 247.669 191.362 248.85 196.875 249.244L196.875 264.994C191.362 264.206 185.85 263.419 181.125 262.237ZM181.125 296.888C171.281 292.95 165.375 288.225 165.375 283.5L165.375 282.713C165.375 282.713 165.375 282.713 165.769 282.713 166.95 283.106 167.737 283.5 168.919 283.5 172.856 284.681 176.794 285.469 181.125 286.256L181.125 296.888ZM118.125 243.337C120.881 243.337 123.244 243.731 126 243.731L126 244.125C126 249.638 127.181 255.15 129.938 259.481 126 259.481 122.062 259.088 118.125 258.694L118.125 243.337ZM102.375 196.087C107.494 196.875 112.613 198.056 118.125 198.45L118.125 214.2C112.613 213.413 107.1 212.625 102.375 211.444L102.375 196.087ZM102.375 257.119C96.8625 256.331 91.35 255.544 86.625 254.362L86.625 239.006C91.7437 239.794 96.8625 240.975 102.375 241.369L102.375 257.119ZM70.875 192.938 70.875 185.85C75.6 188.212 80.7188 190.181 86.625 191.756L86.625 206.325C76.7812 202.781 70.875 198.056 70.875 192.938ZM70.875 249.638C61.0312 245.7 55.125 240.975 55.125 236.25L55.125 229.163C59.85 231.525 64.9688 233.494 70.875 235.069L70.875 249.638ZM55.125 126.788C59.85 129.15 64.9688 131.119 70.875 132.694L70.875 147.263C61.0312 143.325 55.125 138.6 55.125 133.875L55.125 126.788ZM102.375 139.388 102.375 155.138C96.8625 154.35 91.35 153.562 86.625 152.381L86.625 137.025C91.7437 137.812 96.8625 138.6 102.375 139.388ZM141.75 70.875C189.788 70.875 228.375 81.5063 228.375 94.5 228.375 107.494 189.788 118.125 141.75 118.125 93.7125 118.125 55.125 107.494 55.125 94.5 55.125 81.5063 93.7125 70.875 141.75 70.875ZM165.375 257.513C155.531 253.575 149.625 248.85 149.625 244.125L149.625 237.038C154.35 239.4 159.469 241.369 165.375 242.944L165.375 257.513ZM212.625 147.263 212.625 133.087C218.138 131.513 223.65 129.15 228.375 126.788L228.375 133.875C228.375 138.994 222.469 143.719 212.625 147.263ZM181.125 154.744 181.125 139.388C186.244 138.6 191.756 137.812 196.875 137.025L196.875 151.987C192.15 153.169 186.638 153.956 181.125 154.744ZM149.625 157.5 149.625 141.75C154.35 141.75 159.862 141.356 165.375 140.962L165.375 156.712C160.256 157.106 155.138 157.106 149.625 157.5ZM118.125 156.712 118.125 140.962C123.244 141.356 128.362 141.75 133.875 141.75L133.875 157.5C128.362 157.106 123.244 157.106 118.125 156.712ZM322.875 204.75C322.875 217.744 284.287 228.375 236.25 228.375 188.212 228.375 149.625 217.744 149.625 204.75 149.625 191.756 188.212 181.125 236.25 181.125 284.287 181.125 322.875 191.756 322.875 204.75ZM346.5 216.562 346.5 204.75C346.5 186.244 331.931 172.856 303.581 165.375 292.95 162.619 280.744 160.256 266.963 159.075 267.356 157.5 267.356 155.531 267.356 153.562 267.356 142.538 262.237 133.087 251.606 126L251.606 94.5C251.606 75.9937 237.038 62.6062 208.688 55.125 190.181 50.0062 166.556 47.25 141.356 47.25 108.281 47.25 31.1063 51.975 31.1063 94.5L31.1063 133.875C31.1063 144.9 36.225 154.35 46.8562 161.438L46.8562 168.919C37.4062 175.612 31.1063 184.669 31.1063 196.875L31.1063 236.25C31.1063 254.756 45.675 268.144 74.025 275.625 92.5312 280.744 116.156 283.5 141.356 283.5 141.356 302.006 155.925 315.394 184.275 322.875 202.781 327.994 226.406 330.75 251.606 330.75 284.681 330.75 361.856 326.025 361.856 283.5L361.856 244.125C362.25 233.1 357.131 223.65 346.5 216.562Z" fill="#5085B6"/></g></svg>