<svg width="378" height="378" xmlns="http://www.w3.org/2000/svg" xmlns:xlink="http://www.w3.org/1999/xlink" overflow="hidden"><g><rect x="0" y="0" width="378" height="378" fill="#5085B6"/><path d="M259.875 133.875 118.125 133.875 118.125 70.875 259.875 70.875 259.875 133.875ZM259.875 189 236.25 189 236.25 165.375 259.875 165.375 259.875 189ZM259.875 228.375 236.25 228.375 236.25 204.75 259.875 204.75 259.875 228.375ZM259.875 267.75 236.25 267.75 236.25 244.125 259.875 244.125 259.875 267.75ZM259.875 307.125 236.25 307.125 236.25 283.5 259.875 283.5 259.875 307.125ZM220.5 189 196.875 189 196.875 165.375 220.5 165.375 220.5 189ZM220.5 228.375 196.875 228.375 196.875 204.75 220.5 204.75 220.5 228.375ZM220.5 267.75 196.875 267.75 196.875 244.125 220.5 244.125 220.5 267.75ZM220.5 307.125 196.875 307.125 196.875 283.5 220.5 283.5 220.5 307.125ZM181.125 189 157.5 189 157.5 165.375 181.125 165.375 181.125 189ZM181.125 228.375 157.5 228.375 157.5 204.75 181.125 204.75 181.125 228.375ZM181.125 267.75 157.5 267.75 157.5 244.125 181.125 244.125 181.125 267.75ZM181.125 307.125 118.125 307.125 118.125 283.5 181.125 283.5 181.125 307.125ZM118.125 244.125 141.75 244.125 141.75 267.75 118.125 267.75 118.125 244.125ZM118.125 204.75 141.75 204.75 141.75 228.375 118.125 228.375 118.125 204.75ZM118.125 165.375 141.75 165.375 141.75 189 118.125 189 118.125 165.375ZM283.5 31.5 94.5 31.5C85.8375 31.5 78.75 38.5875 78.75 47.25L78.75 330.75C78.75 339.412 85.8375 346.5 94.5 346.5L283.5 346.5C292.162 346.5 299.25 339.412 299.25 330.75L299.25 47.25C299.25 38.5875 292.162 31.5 283.5 31.5Z" fill="#FFFFFF"/></g></svg>