<svg width="378" height="378" xmlns="http://www.w3.org/2000/svg" xmlns:xlink="http://www.w3.org/1999/xlink" overflow="hidden"><g><rect x="0" y="0" width="378" height="378" fill="#5085B6"/><path d="M145.695 98.4375 252.008 98.4375 252.008 114.188 145.695 114.188Z" fill="#FFFFFF"/><path d="M145.695 157.5 212.633 157.5 212.633 173.25 145.695 173.25Z" fill="#FFFFFF"/><path d="M232.32 157.5 252.008 157.5 252.008 173.25 232.32 173.25Z" fill="#FFFFFF"/><path d="M145.695 196.875 212.633 196.875 212.633 212.625 145.695 212.625Z" fill="#FFFFFF"/><path d="M232.32 196.875 252.008 196.875 252.008 212.625 232.32 212.625Z" fill="#FFFFFF"/><path d="M145.695 236.25 212.633 236.25 212.633 252 145.695 252Z" fill="#FFFFFF"/><path d="M232.32 236.25 252.008 236.25 252.008 252 232.32 252Z" fill="#FFFFFF"/><path d="M303.188 287.438 303.188 78.75C303.159 54.8407 283.784 35.4657 259.875 35.4375L74.8125 35.4375C50.9032 35.4657 31.5282 54.8407 31.5 78.75L31.5 145.688 94.5 145.688 94.5 287.438 55.125 287.438 55.125 342.562 342.562 342.562 342.562 287.438ZM259.875 59.0625C270.743 59.0755 279.549 67.8821 279.562 78.75L279.562 307.125 118.125 307.125 118.125 78.75C118.135 71.9054 116.515 65.157 113.4 59.0625ZM55.125 122.062 55.125 78.75C55.125 67.877 63.9395 59.0625 74.8125 59.0625 85.6855 59.0625 94.5 67.877 94.5 78.75L94.5 122.062Z" fill="#FFFFFF"/></g></svg>