<svg width="25" height="25" viewBox="0 0 25 25" fill="none" xmlns="http://www.w3.org/2000/svg">
<g clip-path="url(#clip0_390_6809)">
<path d="M3.125 25C2.26562 25 1.53021 24.6943 0.91875 24.0828C0.30625 23.4703 0 22.7344 0 21.875C0 21.0156 0.30625 20.2797 0.91875 19.6672C1.53021 19.0557 2.26562 18.75 3.125 18.75C3.98438 18.75 4.71979 19.0557 5.33125 19.6672C5.94375 20.2797 6.25 21.0156 6.25 21.875C6.25 22.7344 5.94375 23.4703 5.33125 24.0828C4.71979 24.6943 3.98438 25 3.125 25ZM12.5 25C11.6406 25 10.9052 24.6943 10.2938 24.0828C9.68125 23.4703 9.375 22.7344 9.375 21.875C9.375 21.0156 9.68125 20.2797 10.2938 19.6672C10.9052 19.0557 11.6406 18.75 12.5 18.75C13.3594 18.75 14.0953 19.0557 14.7078 19.6672C15.3193 20.2797 15.625 21.0156 15.625 21.875C15.625 22.7344 15.3193 23.4703 14.7078 24.0828C14.0953 24.6943 13.3594 25 12.5 25ZM21.875 25C21.0156 25 20.2797 24.6943 19.6672 24.0828C19.0557 23.4703 18.75 22.7344 18.75 21.875C18.75 21.0156 19.0557 20.2797 19.6672 19.6672C20.2797 19.0557 21.0156 18.75 21.875 18.75C22.7344 18.75 23.4703 19.0557 24.0828 19.6672C24.6943 20.2797 25 21.0156 25 21.875C25 22.7344 24.6943 23.4703 24.0828 24.0828C23.4703 24.6943 22.7344 25 21.875 25ZM3.125 15.625C2.26562 15.625 1.53021 15.3187 0.91875 14.7062C0.30625 14.0948 0 13.3594 0 12.5C0 11.6406 0.30625 10.9047 0.91875 10.2922C1.53021 9.68073 2.26562 9.375 3.125 9.375C3.98438 9.375 4.71979 9.68073 5.33125 10.2922C5.94375 10.9047 6.25 11.6406 6.25 12.5C6.25 13.3594 5.94375 14.0948 5.33125 14.7062C4.71979 15.3187 3.98438 15.625 3.125 15.625ZM12.5 15.625C11.6406 15.625 10.9052 15.3187 10.2938 14.7062C9.68125 14.0948 9.375 13.3594 9.375 12.5C9.375 11.6406 9.68125 10.9047 10.2938 10.2922C10.9052 9.68073 11.6406 9.375 12.5 9.375C13.3594 9.375 14.0953 9.68073 14.7078 10.2922C15.3193 10.9047 15.625 11.6406 15.625 12.5C15.625 13.3594 15.3193 14.0948 14.7078 14.7062C14.0953 15.3187 13.3594 15.625 12.5 15.625ZM21.875 15.625C21.0156 15.625 20.2797 15.3187 19.6672 14.7062C19.0557 14.0948 18.75 13.3594 18.75 12.5C18.75 11.6406 19.0557 10.9047 19.6672 10.2922C20.2797 9.68073 21.0156 9.375 21.875 9.375C22.7344 9.375 23.4703 9.68073 24.0828 10.2922C24.6943 10.9047 25 11.6406 25 12.5C25 13.3594 24.6943 14.0948 24.0828 14.7062C23.4703 15.3187 22.7344 15.625 21.875 15.625ZM3.125 6.25C2.26562 6.25 1.53021 5.94375 0.91875 5.33125C0.30625 4.71979 0 3.98438 0 3.125C0 2.26562 0.30625 1.53021 0.91875 0.91875C1.53021 0.30625 2.26562 0 3.125 0C3.98438 0 4.71979 0.30625 5.33125 0.91875C5.94375 1.53021 6.25 2.26562 6.25 3.125C6.25 3.98438 5.94375 4.71979 5.33125 5.33125C4.71979 5.94375 3.98438 6.25 3.125 6.25ZM12.5 6.25C11.6406 6.25 10.9052 5.94375 10.2938 5.33125C9.68125 4.71979 9.375 3.98438 9.375 3.125C9.375 2.26562 9.68125 1.53021 10.2938 0.91875C10.9052 0.30625 11.6406 0 12.5 0C13.3594 0 14.0953 0.30625 14.7078 0.91875C15.3193 1.53021 15.625 2.26562 15.625 3.125C15.625 3.98438 15.3193 4.71979 14.7078 5.33125C14.0953 5.94375 13.3594 6.25 12.5 6.25ZM21.875 6.25C21.0156 6.25 20.2797 5.94375 19.6672 5.33125C19.0557 4.71979 18.75 3.98438 18.75 3.125C18.75 2.26562 19.0557 1.53021 19.6672 0.91875C20.2797 0.30625 21.0156 0 21.875 0C22.7344 0 23.4703 0.30625 24.0828 0.91875C24.6943 1.53021 25 2.26562 25 3.125C25 3.98438 24.6943 4.71979 24.0828 5.33125C23.4703 5.94375 22.7344 6.25 21.875 6.25Z" fill="#5085B6"/>
</g>
<defs>
<clipPath id="clip0_390_6809">
<rect width="25" height="25" fill="white"/>
</clipPath>
</defs>
</svg>
