<svg width="54" height="54" viewBox="0 0 54 54" fill="none" xmlns="http://www.w3.org/2000/svg">
<path fill-rule="evenodd" clip-rule="evenodd" d="M26.9999 51.2999C40.4203 51.2999 51.2999 40.4203 51.2999 26.9999C51.2999 13.5796 40.4203 2.69999 26.9999 2.69999C13.5796 2.69999 2.69999 13.5796 2.69999 26.9999C2.69999 40.4203 13.5796 51.2999 26.9999 51.2999ZM26.9999 53.9999C41.912 53.9999 53.9999 41.912 53.9999 26.9999C53.9999 12.0879 41.912 0 26.9999 0C12.0879 0 0 12.0879 0 26.9999C0 41.912 12.0879 53.9999 26.9999 53.9999Z" fill="#5085B6"/>
<path d="M10.8008 42.7006C10.8008 41.306 11.843 40.1275 13.2308 39.9736C23.646 38.8207 30.4027 38.9246 40.795 39.9992C41.314 40.0537 41.8058 40.2582 42.2105 40.5876C42.6152 40.917 42.9152 41.3572 43.0738 41.8543C43.2324 42.3514 43.2429 42.8839 43.1038 43.3869C42.9648 43.8898 42.6823 44.3414 42.2908 44.6864C30.0261 55.3771 23.0169 55.2299 11.6648 44.6972C11.1113 44.1842 10.8008 43.4552 10.8008 42.7019V42.7006Z" fill="#5085B6"/>
<path fill-rule="evenodd" clip-rule="evenodd" d="M40.6544 41.3402C30.3445 40.2737 23.6849 40.1738 13.3764 41.3146C13.037 41.3541 12.7242 41.5174 12.4978 41.7733C12.2714 42.0291 12.1473 42.3594 12.1492 42.701C12.1492 43.0871 12.3099 43.453 12.5812 43.7068C18.208 48.9259 22.4713 51.2843 26.6387 51.2992C30.821 51.314 35.3138 48.9745 41.4023 43.669C41.5957 43.4968 41.735 43.2722 41.8031 43.0224C41.8713 42.7725 41.8654 42.5083 41.7862 42.2618C41.7069 42.0152 41.5578 41.797 41.3569 41.6337C41.156 41.4703 40.9119 41.3688 40.6544 41.3416V41.3402ZM13.0807 38.6308C23.6053 37.4657 30.4606 37.571 40.9339 38.6551C41.7146 38.7366 42.4546 39.0439 43.0633 39.5395C43.672 40.0351 44.123 40.6974 44.3611 41.4454C44.5992 42.1933 44.6141 42.9945 44.4039 43.7508C44.1937 44.507 43.7675 45.1856 43.1776 45.7034C37.0013 51.0872 31.8578 54.0194 26.6306 53.9992C21.3886 53.9803 16.4719 50.9981 10.7466 45.6859C10.3367 45.3041 10.0099 44.8418 9.78665 44.328C9.56343 43.8142 9.44856 43.2599 9.44923 42.6997C9.44726 41.6932 9.8167 40.7213 10.4868 39.9703C11.1569 39.2192 12.0805 38.7418 13.0807 38.6294V38.6308Z" fill="#5085B6"/>
<path d="M37.7992 21.6008C37.7992 24.4651 36.6613 27.2121 34.6359 29.2375C32.6105 31.2629 29.8635 32.4007 26.9992 32.4007C24.1349 32.4007 21.3878 31.2629 19.3625 29.2375C17.3371 27.2121 16.1992 24.4651 16.1992 21.6008C16.1992 18.7364 17.3371 15.9894 19.3625 13.964C21.3878 11.9386 24.1349 10.8008 26.9992 10.8008C29.8635 10.8008 32.6105 11.9386 34.6359 13.964C36.6613 15.9894 37.7992 18.7364 37.7992 21.6008Z" fill="#5085B6"/>
<path fill-rule="evenodd" clip-rule="evenodd" d="M26.9992 29.7007C29.1474 29.7007 31.2077 28.8474 32.7268 27.3283C34.2458 25.8093 35.0992 23.749 35.0992 21.6008C35.0992 19.4525 34.2458 17.3922 32.7268 15.8732C31.2077 14.3542 29.1474 13.5008 26.9992 13.5008C24.8509 13.5008 22.7907 14.3542 21.2716 15.8732C19.7526 17.3922 18.8992 19.4525 18.8992 21.6008C18.8992 23.749 19.7526 25.8093 21.2716 27.3283C22.7907 28.8474 24.8509 29.7007 26.9992 29.7007ZM26.9992 32.4007C29.8635 32.4007 32.6105 31.2629 34.6359 29.2375C36.6613 27.2121 37.7992 24.4651 37.7992 21.6008C37.7992 18.7364 36.6613 15.9894 34.6359 13.964C32.6105 11.9386 29.8635 10.8008 26.9992 10.8008C24.1349 10.8008 21.3878 11.9386 19.3625 13.964C17.3371 15.9894 16.1992 18.7364 16.1992 21.6008C16.1992 24.4651 17.3371 27.2121 19.3625 29.2375C21.3878 31.2629 24.1349 32.4007 26.9992 32.4007Z" fill="#5085B6"/>
</svg>
