<svg width="54" height="54" viewBox="0 0 54 54" fill="none" xmlns="http://www.w3.org/2000/svg">
<circle cx="27" cy="27" r="27" fill="#A8C713"/>
<path fill-rule="evenodd" clip-rule="evenodd" d="M26.9999 51.2999C40.4203 51.2999 51.2999 40.4203 51.2999 26.9999C51.2999 13.5796 40.4203 2.69999 26.9999 2.69999C13.5796 2.69999 2.69999 13.5796 2.69999 26.9999C2.69999 40.4203 13.5796 51.2999 26.9999 51.2999ZM26.9999 53.9999C41.912 53.9999 53.9999 41.912 53.9999 26.9999C53.9999 12.0879 41.912 0 26.9999 0C12.0879 0 0 12.0879 0 26.9999C0 41.912 12.0879 53.9999 26.9999 53.9999Z" fill="white"/>
<path d="M10.8008 42.7006C10.8008 41.306 11.843 40.1275 13.2308 39.9736C23.646 38.8207 30.4027 38.9246 40.795 39.9992C41.314 40.0537 41.8058 40.2582 42.2105 40.5876C42.6152 40.917 42.9152 41.3572 43.0738 41.8543C43.2324 42.3514 43.2429 42.8839 43.1038 43.3869C42.9648 43.8898 42.6823 44.3414 42.2908 44.6864C30.0261 55.3771 23.0169 55.2299 11.6648 44.6972C11.1113 44.1842 10.8008 43.4552 10.8008 42.7019V42.7006Z" fill="white"/>
<path fill-rule="evenodd" clip-rule="evenodd" d="M40.6544 41.3412C30.3445 40.2747 23.6849 40.1748 13.3764 41.3156C13.037 41.3551 12.7242 41.5184 12.4978 41.7742C12.2714 42.03 12.1473 42.3604 12.1492 42.702C12.1492 43.0881 12.3099 43.454 12.5812 43.7078C18.208 48.9268 22.4713 51.2853 26.6387 51.3001C30.821 51.315 35.3138 48.9754 41.4023 43.67C41.5957 43.4978 41.735 43.2732 41.8031 43.0233C41.8713 42.7735 41.8654 42.5093 41.7862 42.2627C41.7069 42.0162 41.5578 41.798 41.3569 41.6347C41.156 41.4713 40.9119 41.3698 40.6544 41.3426V41.3412ZM13.0807 38.6318C23.6053 37.4667 30.4606 37.572 40.9339 38.6561C41.7146 38.7376 42.4546 39.0449 43.0633 39.5405C43.672 40.0361 44.123 40.6984 44.3611 41.4464C44.5992 42.1943 44.6141 42.9955 44.4039 43.7517C44.1937 44.508 43.7675 45.1866 43.1776 45.7044C37.0013 51.0882 31.8578 54.0204 26.6306 54.0001C21.3886 53.9812 16.4719 50.9991 10.7466 45.6869C10.3367 45.305 10.0099 44.8428 9.78665 44.329C9.56343 43.8152 9.44856 43.2609 9.44923 42.7007C9.44726 41.6941 9.8167 40.7223 10.4868 39.9712C11.1569 39.2202 12.0805 38.7428 13.0807 38.6304V38.6318Z" fill="white"/>
<path d="M37.7992 21.5998C37.7992 24.4641 36.6613 27.2111 34.6359 29.2365C32.6105 31.2619 29.8635 32.3998 26.9992 32.3998C24.1349 32.3998 21.3878 31.2619 19.3625 29.2365C17.3371 27.2111 16.1992 24.4641 16.1992 21.5998C16.1992 18.7355 17.3371 15.9884 19.3625 13.963C21.3878 11.9377 24.1349 10.7998 26.9992 10.7998C29.8635 10.7998 32.6105 11.9377 34.6359 13.963C36.6613 15.9884 37.7992 18.7355 37.7992 21.5998Z" fill="white"/>
<path fill-rule="evenodd" clip-rule="evenodd" d="M26.9992 29.6998C29.1474 29.6998 31.2077 28.8464 32.7268 27.3273C34.2458 25.8083 35.0992 23.748 35.0992 21.5998C35.0992 19.4515 34.2458 17.3913 32.7268 15.8722C31.2077 14.3532 29.1474 13.4998 26.9992 13.4998C24.8509 13.4998 22.7907 14.3532 21.2716 15.8722C19.7526 17.3913 18.8992 19.4515 18.8992 21.5998C18.8992 23.748 19.7526 25.8083 21.2716 27.3273C22.7907 28.8464 24.8509 29.6998 26.9992 29.6998ZM26.9992 32.3998C29.8635 32.3998 32.6105 31.2619 34.6359 29.2365C36.6613 27.2111 37.7992 24.4641 37.7992 21.5998C37.7992 18.7355 36.6613 15.9884 34.6359 13.963C32.6105 11.9377 29.8635 10.7998 26.9992 10.7998C24.1349 10.7998 21.3878 11.9377 19.3625 13.963C17.3371 15.9884 16.1992 18.7355 16.1992 21.5998C16.1992 24.4641 17.3371 27.2111 19.3625 29.2365C21.3878 31.2619 24.1349 32.3998 26.9992 32.3998Z" fill="white"/>
</svg>
