<svg width="20" height="20" viewBox="0 0 20 20" fill="none" xmlns="http://www.w3.org/2000/svg">
<path d="M4.9615 14.8203C6.14052 14.6452 7.2173 14.0521 7.99536 13.1491C8.77342 12.2461 9.20089 11.0935 9.19977 9.90158C9.2057 8.40535 9.74848 6.96094 10.7294 5.83109C11.7103 4.70124 13.0642 3.96101 14.5447 3.74502L16.668 3.44171C16.6106 3.37612 16.5614 3.31054 16.4958 3.24496C13.8233 0.572475 8.6915 1.37586 5.01889 5.03208C1.91192 8.18004 0.862599 12.3609 2.30541 15.1974L4.9615 14.8203Z" fill="#A8C713"/>
<path d="M10.5198 9.96338C10.5144 11.463 9.97172 12.911 8.99022 14.0448C8.00871 15.1785 6.65336 15.923 5.17 16.1431L3.14844 16.4307L3.2717 16.5704C5.95069 19.2494 11.095 18.4523 14.7765 14.7872C17.8746 11.6973 18.9594 7.49805 17.5213 4.6958L14.7765 5.09025C13.6022 5.26085 12.5276 5.84585 11.7469 6.73957C10.9662 7.63328 10.531 8.77676 10.5198 9.96338Z" fill="#5085B6"/>
</svg>
