<svg width="30" height="30" viewBox="0 0 30 30" fill="none" xmlns="http://www.w3.org/2000/svg">
<path d="M15.0318 20C14.5318 20 14.1101 19.8229 13.7668 19.4688C13.4226 19.1146 13.2714 18.6979 13.313 18.2188C13.3755 17.3438 13.5839 16.5833 13.938 15.9375C14.2922 15.2917 14.8547 14.625 15.6255 13.9375C16.4797 13.1875 17.1305 12.5363 17.578 11.9837C18.0264 11.4321 18.2505 10.8021 18.2505 10.0938C18.2505 9.23958 17.9643 8.53125 17.3918 7.96875C16.8185 7.40625 16.0214 7.125 15.0005 7.125C14.3339 7.125 13.7664 7.26542 13.298 7.54625C12.8289 7.82792 12.4485 8.17708 12.1568 8.59375C11.8651 9.01042 11.506 9.29167 11.0793 9.4375C10.6518 9.58333 10.2401 9.57292 9.8443 9.40625C9.36513 9.19792 9.03721 8.85417 8.86055 8.375C8.68305 7.89583 8.7193 7.44792 8.9693 7.03125C9.57347 6.09375 10.386 5.3125 11.4068 4.6875C12.4276 4.0625 13.6255 3.75 15.0005 3.75C17.188 3.75 18.8705 4.35958 20.048 5.57875C21.2247 6.79708 21.813 8.26042 21.813 9.96875C21.813 11.0104 21.5893 11.9012 21.1418 12.6412C20.6935 13.3804 19.9901 14.2188 19.0318 15.1562C18.3235 15.8229 17.8235 16.3646 17.5318 16.7812C17.2401 17.1979 17.0422 17.6771 16.938 18.2188C16.8547 18.7396 16.636 19.1667 16.2818 19.5C15.9276 19.8333 15.511 20 15.0318 20ZM15.0005 27.5C14.313 27.5 13.7247 27.2554 13.2355 26.7663C12.7455 26.2763 12.5005 25.6875 12.5005 25C12.5005 24.3125 12.7455 23.7237 13.2355 23.2337C13.7247 22.7446 14.313 22.5 15.0005 22.5C15.688 22.5 16.2768 22.7446 16.7668 23.2337C17.256 23.7237 17.5005 24.3125 17.5005 25C17.5005 25.6875 17.256 26.2763 16.7668 26.7663C16.2768 27.2554 15.688 27.5 15.0005 27.5Z" fill="#A8C713"/>
</svg>
