<svg width="378" height="378" xmlns="http://www.w3.org/2000/svg" xmlns:xlink="http://www.w3.org/1999/xlink" overflow="hidden"><g><rect x="0" y="0" width="378" height="378" fill="#5085B6"/><path d="M288.757 116.597C282.311 61.5203 232.437 22.0969 177.36 28.5425 126.897 34.4482 88.7985 77.1187 88.6252 127.925L135.875 127.925C135.874 98.5789 159.663 74.7877 189.009 74.7865 218.356 74.7853 242.147 98.5745 242.148 127.921 242.149 146.219 232.736 163.229 217.232 172.947 185.236 192.523 165.625 227.241 165.375 264.75L212.625 264.75C212.926 243.499 224.179 223.91 242.385 212.944 275.161 192.487 293.215 154.975 288.757 116.597Z" fill="#FFFFFF"/><path d="M210.18 301.116 210.18 301.116C198.92 289.833 180.646 289.814 169.363 301.074 169.349 301.088 169.335 301.102 169.32 301.116 166.68 303.767 164.578 306.904 163.131 310.354 161.624 313.918 160.857 317.75 160.874 321.619 160.853 325.473 161.623 329.29 163.139 332.833 166.083 339.759 171.616 345.262 178.558 348.17 182.121 349.676 185.951 350.447 189.819 350.438 193.672 350.456 197.489 349.686 201.033 348.173 207.926 345.23 213.416 339.739 216.358 332.845 217.872 329.301 218.644 325.484 218.626 321.631 218.64 317.762 217.871 313.93 216.366 310.366 214.92 306.912 212.819 303.771 210.18 301.116Z" fill="#FFFFFF"/></g></svg>