<svg width="378" height="378" xmlns="http://www.w3.org/2000/svg" xmlns:xlink="http://www.w3.org/1999/xlink" overflow="hidden"><g><rect x="0" y="0" width="378" height="378" fill="#5085B6"/><path d="M78.75 51.1875 55.125 51.1875 55.125 326.812 326.812 326.812 326.812 303.188 78.75 303.188 78.75 51.1875Z" fill="#FFFFFF"/><path d="M326.812 279.562 267.75 279.562 267.75 51.1875 326.812 51.1875Z" fill="#FFFFFF"/><path d="M244.125 279.562 185.062 279.562 185.062 129.938 244.125 129.938Z" fill="#FFFFFF"/><path d="M161.438 279.562 102.375 279.562 102.375 200.812 161.438 200.812Z" fill="#FFFFFF"/><path d="M228.375 105.289 228.375 51.1875 174.274 51.1875 195.773 72.6862 100.761 167.698 111.864 178.802 206.876 83.8294 228.375 105.289Z" fill="#FFFFFF"/></g></svg>