<svg width="378" height="378" xmlns="http://www.w3.org/2000/svg" xmlns:xlink="http://www.w3.org/1999/xlink" overflow="hidden"><g><rect x="0" y="0" width="378" height="378" fill="#FFFFFF"/><path d="M106.312 265.781C106.312 281.004 93.9724 293.344 78.75 293.344 63.5276 293.344 51.1875 281.004 51.1875 265.781 51.1875 250.559 63.5276 238.219 78.75 238.219 93.9724 238.219 106.312 250.559 106.312 265.781Z" fill="#5085B6"/><path d="M334.688 265.781C334.688 281.004 322.347 293.344 307.125 293.344 291.903 293.344 279.562 281.004 279.562 265.781 279.562 250.559 291.903 238.219 307.125 238.219 322.347 238.219 334.688 250.559 334.688 265.781Z" fill="#5085B6"/><path d="M267.75 179.156 267.75 139.781 291.375 139.781C298.463 139.781 304.763 144.506 306.338 151.2L314.213 178.369C314.213 178.763 314.606 178.763 314.606 179.156L267.75 179.156ZM355.95 198.056 335.081 182.306C332.325 180.337 330.356 177.188 329.569 174.038L321.694 146.869C317.756 133.481 305.55 124.031 291.375 124.031L252 124.031 252 179.156 252 202.781 252 265.781 267.75 265.781C267.75 244.125 285.469 226.406 307.125 226.406 328.781 226.406 346.5 244.125 346.5 265.781 355.162 265.781 362.25 258.694 362.25 250.031L362.25 210.656C362.25 205.538 359.888 201.206 355.95 198.056Z" fill="#5085B6"/><path d="M15.75 265.781 39.375 265.781C39.375 244.125 57.0938 226.406 78.75 226.406 100.406 226.406 118.125 244.125 118.125 265.781L236.25 265.781 236.25 210.656 15.75 210.656 15.75 265.781Z" fill="#5085B6"/><path d="M267.75 108.281 267.75 84.6562 204.75 84.6562 189 100.406 51.1875 100.406 15.75 100.406 15.75 159.469 51.1875 194.906 236.25 194.906 236.25 124.031 252 108.281Z" fill="#5085B6"/></g></svg>