<svg width="378" height="378" xmlns="http://www.w3.org/2000/svg" xmlns:xlink="http://www.w3.org/1999/xlink" overflow="hidden"><g><rect x="0" y="0" width="378" height="378" fill="#FFFFFF"/><path d="M217.862 154.232 221.209 144.309 213.649 136.749 203.726 140.096C201.147 138.643 198.395 137.518 195.536 136.749L190.89 127.496 180.337 127.496 175.652 136.789C172.783 137.565 170.019 138.689 167.423 140.136L157.5 136.789 149.94 144.349 153.09 154.271C151.579 156.837 150.414 159.59 149.625 162.461L140.333 167.107 140.333 177.503 149.625 182.188C150.391 185.048 151.515 187.8 152.972 190.378L149.625 200.301 157.5 207.861 167.423 204.474C170 205.941 172.752 207.079 175.612 207.861L180.259 217.114 190.811 217.114 195.497 208.018C198.308 207.254 201.018 206.156 203.569 204.75L213.452 208.136 221.012 200.537 217.665 190.654C219.169 188.056 220.371 185.295 221.248 182.424L230.501 177.778 230.501 167.107 221.209 162.422C220.457 159.557 219.332 156.803 217.862 154.232ZM185.574 188.212C176.876 188.212 169.824 181.161 169.824 172.462 169.824 163.764 176.876 156.712 185.574 156.712 194.22 156.839 201.198 163.817 201.324 172.462 201.324 181.161 194.273 188.212 185.574 188.212Z" fill="#5085B6"/><path d="M219.398 294.486 151.633 294.486C145.359 294.855 140.573 300.241 140.942 306.514 141.282 312.272 145.875 316.866 151.633 317.205L219.398 317.205C225.671 316.835 230.458 311.45 230.088 305.176 229.749 299.418 225.155 294.825 219.398 294.486Z" fill="#5085B6"/><path d="M185.535 355.674C198.391 355.654 209.08 345.77 210.105 332.955L160.926 332.955C161.97 345.777 172.671 355.655 185.535 355.674Z" fill="#5085B6"/><path d="M283.854 175.101 283.854 171.714C282.851 117.969 239.17 74.8298 185.417 74.4975L185.417 74.4975C131.663 74.8298 87.9827 117.969 86.9794 171.714L86.9794 175.101C87.3393 186.757 89.6553 198.271 93.8306 209.16 97.8158 219.434 103.603 228.915 110.919 237.156 119.936 246.96 129.78 266.057 133.954 274.562 135.23 277.131 137.857 278.75 140.726 278.736L230.107 278.736C232.976 278.75 235.603 277.131 236.88 274.562 241.054 266.057 250.898 246.999 259.914 237.156 267.231 228.915 273.018 219.434 277.003 209.16 281.178 198.271 283.494 186.757 283.854 175.101ZM261.174 174.746C260.894 183.794 259.125 192.734 255.938 201.206 252.948 208.836 248.628 215.875 243.18 221.996 234.44 232.401 226.947 243.792 220.854 255.938L149.979 255.938C143.957 243.76 136.53 232.329 127.851 221.878 122.402 215.757 118.083 208.718 115.093 201.088 111.838 192.627 110.002 183.687 109.659 174.628L109.659 171.793C110.365 130.449 143.949 97.2314 185.299 96.9806L185.299 96.9806C226.648 97.2314 260.233 130.449 260.938 171.793Z" fill="#5085B6"/><path d="M186.283 59.0625C190.632 59.0625 194.158 55.5369 194.158 51.1875L194.158 23.625C194.158 19.2758 190.632 15.75 186.283 15.75 181.934 15.75 178.408 19.2758 178.408 23.625L178.408 51.1875C178.408 55.5369 181.934 59.0625 186.283 59.0625Z" fill="#5085B6"/><path d="M92.8463 93.6731C95.9179 96.7263 100.878 96.7263 103.95 93.6731 107.003 90.6015 107.003 85.641 103.95 82.5694L84.4594 63C81.2314 60.0855 76.2517 60.3394 73.3367 63.5674 70.623 66.5733 70.6313 71.1471 73.3556 74.1431Z" fill="#5085B6"/><path d="M274.286 97.4925C276.385 97.4941 278.398 96.6578 279.878 95.1694L299.329 75.4819C301.866 71.9492 301.059 67.0288 297.526 64.4919 294.739 62.4901 290.976 62.5236 288.225 64.575L268.537 84.2625C265.484 87.3341 265.484 92.2946 268.537 95.3662 270.088 96.8223 272.162 97.5894 274.286 97.4925Z" fill="#5085B6"/><path d="M63.9844 163.406 36.4219 163.406C32.0726 163.406 28.5469 166.932 28.5469 171.281 28.5469 175.631 32.0726 179.156 36.4219 179.156L63.9844 179.156C68.3337 179.156 71.8594 175.631 71.8594 171.281 71.8594 166.932 68.3337 163.406 63.9844 163.406Z" fill="#5085B6"/><path d="M92.8463 248.614 73.3556 268.301C70.0521 271.13 69.6674 276.101 72.4965 279.405 75.3256 282.709 80.297 283.093 83.6002 280.264 83.9085 280 84.1956 279.713 84.4594 279.405L103.95 259.717C106.779 256.414 106.394 251.443 103.091 248.614 100.143 246.089 95.7946 246.089 92.8463 248.614Z" fill="#5085B6"/><path d="M279.878 247.117C276.963 243.89 271.983 243.636 268.755 246.55 265.527 249.465 265.273 254.444 268.187 257.673 268.361 257.864 268.543 258.048 268.734 258.221L288.422 277.909C291.206 281.251 296.171 281.703 299.513 278.919 302.855 276.136 303.307 271.17 300.523 267.828 300.146 267.375 299.719 266.966 299.25 266.608Z" fill="#5085B6"/><path d="M334.688 163.131 307.125 163.131C302.776 163.131 299.25 166.656 299.25 171.006 299.25 175.355 302.776 178.881 307.125 178.881L334.688 178.881C339.037 178.881 342.562 175.355 342.562 171.006 342.562 166.656 339.037 163.131 334.688 163.131Z" fill="#5085B6"/></g></svg>