<svg width="378" height="378" xmlns="http://www.w3.org/2000/svg" xmlns:xlink="http://www.w3.org/1999/xlink" overflow="hidden"><g><rect x="0" y="0" width="378" height="378" fill="#FFFFFF"/><path d="M299.25 27.5625 78.75 27.5625C70.0517 27.5625 63 34.614 63 43.3125L63 334.688C63 343.386 70.0517 350.438 78.75 350.438L299.25 350.438C307.948 350.438 315 343.386 315 334.688L315 43.3125C315 34.614 307.948 27.5625 299.25 27.5625ZM291.375 51.1875 291.375 86.625 267.75 86.625C267.75 77.9267 260.698 70.875 252 70.875 243.302 70.875 236.25 77.9267 236.25 86.625L228.375 86.625C228.375 77.9267 221.323 70.875 212.625 70.875 203.927 70.875 196.875 77.9267 196.875 86.625L141.75 86.625C141.75 77.9267 134.698 70.875 126 70.875 117.302 70.875 110.25 77.9267 110.25 86.625L86.625 86.625 86.625 51.1875ZM252 259.875C243.302 259.875 236.25 266.927 236.25 275.625L228.375 275.625C228.375 266.927 221.323 259.875 212.625 259.875 203.927 259.875 196.875 266.927 196.875 275.625L141.75 275.625C141.75 266.927 134.698 259.875 126 259.875 117.302 259.875 110.25 266.927 110.25 275.625L86.625 275.625 86.625 228.375 110.25 228.375C110.25 237.073 117.302 244.125 126 244.125 134.698 244.125 141.75 237.073 141.75 228.375L149.625 228.375C149.625 237.073 156.677 244.125 165.375 244.125 174.073 244.125 181.125 237.073 181.125 228.375L236.25 228.375C236.25 237.073 243.302 244.125 252 244.125 260.698 244.125 267.75 237.073 267.75 228.375L291.375 228.375 291.375 275.625 267.75 275.625C267.75 266.927 260.698 259.875 252 259.875ZM267.75 212.625C267.75 203.927 260.698 196.875 252 196.875 243.302 196.875 236.25 203.927 236.25 212.625L181.125 212.625C181.125 203.927 174.073 196.875 165.375 196.875 156.677 196.875 149.625 203.927 149.625 212.625L141.75 212.625C141.75 203.927 134.698 196.875 126 196.875 117.302 196.875 110.25 203.927 110.25 212.625L86.625 212.625 86.625 165.375 157.5 165.375C157.5 174.073 164.552 181.125 173.25 181.125 181.948 181.125 189 174.073 189 165.375L196.875 165.375C196.875 174.073 203.927 181.125 212.625 181.125 221.323 181.125 228.375 174.073 228.375 165.375L236.25 165.375C236.25 174.073 243.302 181.125 252 181.125 260.698 181.125 267.75 174.073 267.75 165.375L291.375 165.375 291.375 212.625ZM267.75 149.625C267.75 140.927 260.698 133.875 252 133.875 243.302 133.875 236.25 140.927 236.25 149.625L228.375 149.625C228.375 140.927 221.323 133.875 212.625 133.875 203.927 133.875 196.875 140.927 196.875 149.625L189 149.625C189 140.927 181.948 133.875 173.25 133.875 164.552 133.875 157.5 140.927 157.5 149.625L86.625 149.625 86.625 102.375 110.25 102.375C110.25 111.073 117.302 118.125 126 118.125 134.698 118.125 141.75 111.073 141.75 102.375L196.875 102.375C196.875 111.073 203.927 118.125 212.625 118.125 221.323 118.125 228.375 111.073 228.375 102.375L236.25 102.375C236.25 111.073 243.302 118.125 252 118.125 260.698 118.125 267.75 111.073 267.75 102.375L291.375 102.375 291.375 149.625ZM86.625 326.812 86.625 291.375 110.25 291.375C110.25 300.073 117.302 307.125 126 307.125 134.698 307.125 141.75 300.073 141.75 291.375L196.875 291.375C196.875 300.073 203.927 307.125 212.625 307.125 221.323 307.125 228.375 300.073 228.375 291.375L236.25 291.375C236.25 300.073 243.302 307.125 252 307.125 260.698 307.125 267.75 300.073 267.75 291.375L291.375 291.375 291.375 326.812Z" fill="#5085B6"/></g></svg>