<svg width="378" height="378" xmlns="http://www.w3.org/2000/svg" xmlns:xlink="http://www.w3.org/1999/xlink" overflow="hidden"><g><rect x="0" y="0" width="378" height="378" fill="#FFFFFF"/><path d="M332.719 110.25C332.719 123.298 322.141 133.875 309.094 133.875 296.046 133.875 285.469 123.298 285.469 110.25 285.469 97.2023 296.046 86.625 309.094 86.625 322.141 86.625 332.719 97.2023 332.719 110.25Z" fill="#5085B6"/><path d="M357.919 205.144 346.106 169.312 342.169 157.894C341.775 156.712 341.381 155.925 340.594 154.744 334.294 148.05 326.025 143.719 316.575 142.144 313.819 141.75 311.456 141.75 309.094 141.75 306.731 141.75 304.369 141.75 302.4 142.144 292.95 143.719 284.681 148.05 278.381 154.744 277.594 155.531 276.806 156.712 276.806 157.894L272.869 169.312 270.112 177.581 266.963 169.312 263.025 157.894C262.631 156.712 262.237 155.925 261.45 154.744 255.15 148.05 246.881 143.719 237.431 142.144 235.069 141.75 232.706 141.75 230.344 141.75 227.981 141.75 225.619 141.75 223.65 142.144 214.2 143.719 205.931 148.05 199.631 154.744 198.844 155.531 198.056 156.712 198.056 157.894L194.119 169.312 191.362 177.581 188.212 169.312 184.275 157.894C183.881 156.712 183.487 155.925 182.7 154.744 176.4 148.05 168.131 143.719 158.681 142.144 156.319 141.75 153.956 141.75 151.594 141.75 149.231 141.75 146.869 141.75 144.9 142.144 135.45 143.719 127.181 148.05 120.881 154.744 120.094 155.531 119.306 156.712 119.306 157.894L115.369 169.312 112.613 177.581 109.462 169.312 105.525 157.894C105.131 156.712 104.738 155.925 103.95 154.744 97.65 148.05 89.3813 143.719 79.9312 142.144 77.175 141.75 75.2063 141.75 72.8438 141.75 70.4812 141.75 68.1187 141.75 66.15 142.144 56.7 143.719 48.4313 148.05 42.1312 154.744 41.3438 155.531 40.5563 156.712 40.5563 157.894L36.6188 169.312 24.8063 205.144C23.2313 209.869 25.2 215.381 29.925 217.744 31.5 218.531 32.6813 218.531 34.2562 218.531 38.1937 218.531 42.1312 215.775 43.7063 211.837L50.0062 192.544 50.0062 212.231 38.1937 243.731 50.0062 243.731 50.0062 279.169 69.6938 279.169 69.6938 243.731 77.5688 243.731 77.5688 279.169 97.2563 279.169 97.2563 243.731 109.069 243.731 97.2563 211.444 97.2563 192.15 103.556 211.444C104.738 215.381 108.675 218.138 113.006 218.138 113.006 218.138 113.006 218.138 113.006 218.138 113.006 218.138 113.006 218.138 113.006 218.138L113.006 218.138 113.006 218.138C116.944 218.138 120.881 215.381 122.456 211.444L128.756 192.15 128.756 279.562 148.444 279.562 148.444 220.5 156.319 220.5 156.319 279.562 176.006 279.562 176.006 192.544 182.306 211.837C183.881 216.169 187.425 218.531 191.756 218.531L191.756 218.531C191.756 218.531 191.756 218.531 191.756 218.531 195.694 218.531 199.631 215.775 201.206 211.837L207.506 192.544 207.506 211.837 195.694 244.125 207.506 244.125 207.506 279.562 227.194 279.562 227.194 244.125 235.069 244.125 235.069 279.562 254.756 279.562 254.756 244.125 266.569 244.125 254.756 212.625 254.756 192.938 261.056 212.231C262.237 216.169 266.175 218.925 270.506 218.925 270.506 218.925 270.506 218.925 270.506 218.925 270.506 218.925 270.506 218.925 270.506 218.925 270.506 218.925 270.506 218.925 270.506 218.925 270.506 218.925 270.506 218.925 270.506 218.925 274.444 218.925 278.381 216.169 279.956 212.231L286.256 192.938 286.256 279.562 305.944 279.562 305.944 220.5 313.819 220.5 313.819 279.562 333.506 279.562 333.506 192.544 339.806 211.837C340.987 215.775 344.925 218.531 349.256 218.531 350.831 218.531 352.013 218.138 353.588 217.744 357.525 215.381 359.494 209.869 357.919 205.144Z" fill="#5085B6"/><path d="M96.4688 110.25C96.4688 123.298 85.8915 133.875 72.8438 133.875 59.796 133.875 49.2188 123.298 49.2188 110.25 49.2188 97.2023 59.796 86.625 72.8438 86.625 85.8915 86.625 96.4688 97.2023 96.4688 110.25Z" fill="#5085B6"/><path d="M253.969 110.25C253.969 123.298 243.391 133.875 230.344 133.875 217.296 133.875 206.719 123.298 206.719 110.25 206.719 97.2023 217.296 86.625 230.344 86.625 243.391 86.625 253.969 97.2023 253.969 110.25Z" fill="#5085B6"/><path d="M175.219 110.25C175.219 123.298 164.641 133.875 151.594 133.875 138.546 133.875 127.969 123.298 127.969 110.25 127.969 97.2023 138.546 86.625 151.594 86.625 164.641 86.625 175.219 97.2023 175.219 110.25Z" fill="#5085B6"/></g></svg>