<svg width="20" height="20" viewBox="0 0 20 20" fill="none" xmlns="http://www.w3.org/2000/svg">
<path d="M7.07 10.91C7.60574 10.91 8.11953 11.1228 8.49836 11.5016C8.87718 11.8805 9.09 12.3943 9.09 12.93V17.98C9.09 18.5157 8.87718 19.0295 8.49836 19.4084C8.11953 19.7872 7.60574 20 7.07 20H2.02C1.48426 20 0.970468 19.7872 0.591644 19.4084C0.212821 19.0295 0 18.5157 0 17.98V12.93C0 12.3943 0.212821 11.8805 0.591644 11.5016C0.970468 11.1228 1.48426 10.91 2.02 10.91H7.07ZM17.98 10.91C18.5157 10.91 19.0295 11.1228 19.4084 11.5016C19.7872 11.8805 20 12.3943 20 12.93V17.98C20 18.5157 19.7872 19.0295 19.4084 19.4084C19.0295 19.7872 18.5157 20 17.98 20H12.93C12.3943 20 11.8805 19.7872 11.5016 19.4084C11.1228 19.0295 10.91 18.5157 10.91 17.98V12.93C10.91 12.3943 11.1228 11.8805 11.5016 11.5016C11.8805 11.1228 12.3943 10.91 12.93 10.91H17.98ZM7.07 0C7.60574 0 8.11953 0.212821 8.49836 0.591644C8.87718 0.970468 9.09 1.48426 9.09 2.02V7.07C9.09 7.60574 8.87718 8.11953 8.49836 8.49836C8.11953 8.87718 7.60574 9.09 7.07 9.09H2.02C1.48426 9.09 0.970468 8.87718 0.591644 8.49836C0.212821 8.11953 0 7.60574 0 7.07V2.02C0 1.48426 0.212821 0.970468 0.591644 0.591644C0.970468 0.212821 1.48426 0 2.02 0L7.07 0ZM17.98 0C18.5157 0 19.0295 0.212821 19.4084 0.591644C19.7872 0.970468 20 1.48426 20 2.02V7.07C20 7.60574 19.7872 8.11953 19.4084 8.49836C19.0295 8.87718 18.5157 9.09 17.98 9.09H12.93C12.3943 9.09 11.8805 8.87718 11.5016 8.49836C11.1228 8.11953 10.91 7.60574 10.91 7.07V2.02C10.91 1.48426 11.1228 0.970468 11.5016 0.591644C11.8805 0.212821 12.3943 0 12.93 0L17.98 0Z" fill="#9FC754"/>
</svg>
