<svg width="378" height="378" xmlns="http://www.w3.org/2000/svg" xmlns:xlink="http://www.w3.org/1999/xlink" overflow="hidden"><g><rect x="0" y="0" width="378" height="378" fill="#FFFFFF"/><path d="M189 236.25C163.013 236.25 141.75 214.987 141.75 189 141.75 163.013 163.013 141.75 189 141.75 214.987 141.75 236.25 163.013 236.25 189 236.25 214.987 214.987 236.25 189 236.25ZM295.312 159.469C292.95 150.806 289.406 142.538 285.075 135.056L294.919 105.525 272.475 83.0813 242.944 92.925C235.069 88.5938 226.8 85.05 218.138 82.6875L204.75 55.125 173.25 55.125 159.469 82.6875C150.806 85.05 142.538 88.5938 135.056 92.925L105.525 83.0813 83.0813 105.525 92.925 135.056C88.5938 142.931 85.05 151.2 82.6875 159.862L55.125 173.25 55.125 204.75 82.6875 218.531C85.05 227.194 88.5938 235.462 92.925 242.944L83.0813 272.475 105.525 294.919 135.056 285.075C142.931 289.406 151.2 292.95 159.862 295.312L173.644 322.875 205.144 322.875 218.925 295.312C227.587 292.95 235.856 289.406 243.337 285.075L272.869 294.919 295.312 272.475 285.469 242.944C289.8 235.069 293.344 226.8 295.706 218.138L323.269 204.356 323.269 172.856 295.312 159.469Z" fill="#5085B6"/></g></svg>